<?xml version="1.0" encoding="UTF-8" standalone="no"?><!DOCTYPE svg PUBLIC "-//W3C//DTD SVG 1.1//EN" "http://www.w3.org/Graphics/SVG/1.1/DTD/svg11.dtd"><!-- Generated by graphviz version 2.40.1 (20161225.0304)
 --><!-- Title: classes_Portfolio Pages: 1 --><svg xmlns="http://www.w3.org/2000/svg" xmlns:xlink="http://www.w3.org/1999/xlink" width="859pt" height="548pt" viewBox="0.00 0.00 859.15 547.60">
<g id="graph0" class="graph" transform="scale(1 1) rotate(0) translate(4 543.6)">
<title>classes_Portfolio</title>
<polygon fill="#ffffff" stroke="transparent" points="-4,4 -4,-543.6 855.1481,-543.6 855.1481,4 -4,4"/>
<!-- Portfolio.ContentGenerator -->
<g id="node1" class="node">
<title>Portfolio.ContentGenerator</title>
<polygon fill="none" stroke="#000000" points="0,-.5 0,-259.7 176.1278,-259.7 176.1278,-.5 0,-.5"/>
<text text-anchor="middle" x="88.0639" y="-243.1" font-family="Times,serif" font-size="14.00" fill="#000000">ContentGenerator</text>
<polyline fill="none" stroke="#000000" points="0,-234.9 176.1278,-234.9 "/>
<text text-anchor="start" x="8" y="-218.3" font-family="Times,serif" font-size="14.00" fill="#000000">allocation_piesector</text>
<text text-anchor="start" x="8" y="-201.5" font-family="Times,serif" font-size="14.00" fill="#000000">allocation_piesector_initial</text>
<text text-anchor="start" x="8" y="-184.7" font-family="Times,serif" font-size="14.00" fill="#000000">allocation_sector_growth</text>
<text text-anchor="start" x="8" y="-167.9" font-family="Times,serif" font-size="14.00" fill="#000000">forecast_perfomance_df</text>
<text text-anchor="start" x="8" y="-151.1" font-family="Times,serif" font-size="14.00" fill="#000000">forecast_portfolio</text>
<text text-anchor="start" x="8" y="-134.3" font-family="Times,serif" font-size="14.00" fill="#000000">homepage_capital_growth</text>
<text text-anchor="start" x="8" y="-117.5" font-family="Times,serif" font-size="14.00" fill="#000000">homepage_loser_gainer_df</text>
<text text-anchor="start" x="8" y="-100.7" font-family="Times,serif" font-size="14.00" fill="#000000">homepage_perfomance_df</text>
<text text-anchor="start" x="8" y="-83.9" font-family="Times,serif" font-size="14.00" fill="#000000">portfolio</text>
<text text-anchor="start" x="8" y="-67.1" font-family="Times,serif" font-size="14.00" fill="#000000">portfolio_simulation</text>
<text text-anchor="start" x="8" y="-50.3" font-family="Times,serif" font-size="14.00" fill="#000000">sectors</text>
<text text-anchor="start" x="8" y="-33.5" font-family="Times,serif" font-size="14.00" fill="#000000">stock_sectors</text>
<polyline fill="none" stroke="#000000" points="0,-25.3 176.1278,-25.3 "/>
<text text-anchor="start" x="8" y="-8.7" font-family="Times,serif" font-size="14.00" fill="#000000">forecast_asset_figure(ticker)</text>
</g>
<!-- Portfolio.PortfolioDB -->
<g id="node3" class="node">
<title>Portfolio.PortfolioDB</title>
<polygon fill="none" stroke="#000000" points="82.1445,-313.5 82.1445,-539.1 269.9833,-539.1 269.9833,-313.5 82.1445,-313.5"/>
<text text-anchor="middle" x="176.0639" y="-522.5" font-family="Times,serif" font-size="14.00" fill="#000000">PortfolioDB</text>
<polyline fill="none" stroke="#000000" points="82.1445,-514.3 269.9833,-514.3 "/>
<text text-anchor="start" x="90.1445" y="-497.7" font-family="Times,serif" font-size="14.00" fill="#000000">currencies : NoneType</text>
<text text-anchor="start" x="90.1445" y="-480.9" font-family="Times,serif" font-size="14.00" fill="#000000">current_content</text>
<text text-anchor="start" x="90.1445" y="-464.1" font-family="Times,serif" font-size="14.00" fill="#000000">current_portfolio</text>
<text text-anchor="start" x="90.1445" y="-447.3" font-family="Times,serif" font-size="14.00" fill="#000000">current_simulation</text>
<text text-anchor="start" x="90.1445" y="-430.5" font-family="Times,serif" font-size="14.00" fill="#000000">portfolios : list</text>
<text text-anchor="start" x="90.1445" y="-413.7" font-family="Times,serif" font-size="14.00" fill="#000000">sectors : NoneType</text>
<polyline fill="none" stroke="#000000" points="82.1445,-405.5 269.9833,-405.5 "/>
<text text-anchor="start" x="90.1445" y="-388.9" font-family="Times,serif" font-size="14.00" fill="#000000">delete_portfolio(name)</text>
<text text-anchor="start" x="90.1445" y="-372.1" font-family="Times,serif" font-size="14.00" fill="#000000">get_current_portfolio_list()</text>
<text text-anchor="start" x="90.1445" y="-355.3" font-family="Times,serif" font-size="14.00" fill="#000000">get_portfolio(name)</text>
<text text-anchor="start" x="90.1445" y="-338.5" font-family="Times,serif" font-size="14.00" fill="#000000">set_portfolio(portfolio)</text>
<text text-anchor="start" x="90.1445" y="-321.7" font-family="Times,serif" font-size="14.00" fill="#000000">store_new_portfolio(portfolio)</text>
</g>
<!-- Portfolio.ContentGenerator&#45;&gt;Portfolio.PortfolioDB -->
<g id="edge1" class="edge">
<title>Portfolio.ContentGenerator-&gt;Portfolio.PortfolioDB</title>
<path fill="none" stroke="#000000" d="M81.8184,-259.9058C83.3565,-271.9097 85.7083,-283.7714 89.1283,-295 89.8303,-297.3047 90.5869,-299.6063 91.3937,-301.9024"/>
<polygon fill="#000000" stroke="#000000" points="91.4843,-302.1362 97.3832,-306.2837 95.8235,-313.3242 89.9246,-309.1766 91.4843,-302.1362"/>
<text text-anchor="middle" x="167.0317" y="-282.4" font-family="Times,serif" font-size="14.00" fill="#00ff00">_current_ContentGenerator</text>
</g>
<!-- Portfolio.Portfolio -->
<g id="node2" class="node">
<title>Portfolio.Portfolio</title>
<polygon fill="none" stroke="#000000" points="346.2749,-50.9 346.2749,-209.3 513.8529,-209.3 513.8529,-50.9 346.2749,-50.9"/>
<text text-anchor="middle" x="430.0639" y="-192.7" font-family="Times,serif" font-size="14.00" fill="#000000">Portfolio</text>
<polyline fill="none" stroke="#000000" points="346.2749,-184.5 513.8529,-184.5 "/>
<text text-anchor="start" x="354.2749" y="-167.9" font-family="Times,serif" font-size="14.00" fill="#000000">asset_values</text>
<text text-anchor="start" x="354.2749" y="-151.1" font-family="Times,serif" font-size="14.00" fill="#000000">name</text>
<text text-anchor="start" x="354.2749" y="-134.3" font-family="Times,serif" font-size="14.00" fill="#000000">pct_values</text>
<text text-anchor="start" x="354.2749" y="-117.5" font-family="Times,serif" font-size="14.00" fill="#000000">tickers : list</text>
<polyline fill="none" stroke="#000000" points="346.2749,-109.3 513.8529,-109.3 "/>
<text text-anchor="start" x="354.2749" y="-92.7" font-family="Times,serif" font-size="14.00" fill="#000000">add_Ticker(ticker)</text>
<text text-anchor="start" x="354.2749" y="-75.9" font-family="Times,serif" font-size="14.00" fill="#000000">dataframe_representation()</text>
<text text-anchor="start" x="354.2749" y="-59.1" font-family="Times,serif" font-size="14.00" fill="#000000">generate()</text>
</g>
<!-- Portfolio.PortfolioSimulation -->
<g id="node4" class="node">
<title>Portfolio.PortfolioSimulation</title>
<polygon fill="none" stroke="#000000" points="201.451,-50.9 201.451,-209.3 328.6768,-209.3 328.6768,-50.9 201.451,-50.9"/>
<text text-anchor="middle" x="265.0639" y="-192.7" font-family="Times,serif" font-size="14.00" fill="#000000">PortfolioSimulation</text>
<polyline fill="none" stroke="#000000" points="201.451,-184.5 328.6768,-184.5 "/>
<text text-anchor="start" x="209.451" y="-167.9" font-family="Times,serif" font-size="14.00" fill="#000000">data_pct</text>
<text text-anchor="start" x="209.451" y="-151.1" font-family="Times,serif" font-size="14.00" fill="#000000">data_price</text>
<text text-anchor="start" x="209.451" y="-134.3" font-family="Times,serif" font-size="14.00" fill="#000000">n_simulations : int</text>
<text text-anchor="start" x="209.451" y="-117.5" font-family="Times,serif" font-size="14.00" fill="#000000">portfolio_manager</text>
<text text-anchor="start" x="209.451" y="-100.7" font-family="Times,serif" font-size="14.00" fill="#000000">simulations</text>
<text text-anchor="start" x="209.451" y="-83.9" font-family="Times,serif" font-size="14.00" fill="#000000">trading_days : int</text>
<polyline fill="none" stroke="#000000" points="201.451,-75.7 328.6768,-75.7 "/>
<text text-anchor="middle" x="265.0639" y="-59.1" font-family="Times,serif" font-size="14.00" fill="#000000"> </text>
</g>
<!-- Portfolio.PortfolioSimulation&#45;&gt;Portfolio.PortfolioDB -->
<g id="edge2" class="edge">
<title>Portfolio.PortfolioSimulation-&gt;Portfolio.PortfolioDB</title>
<path fill="none" stroke="#000000" d="M259.9442,-209.708C256.7404,-237.1686 251.5318,-267.8406 243.0639,-295 242.3498,-297.2904 241.5981,-299.5892 240.8126,-301.8927"/>
<polygon fill="#000000" stroke="#000000" points="240.7181,-302.1528 242.4286,-309.1582 236.6201,-313.4315 234.9096,-306.4262 240.7181,-302.1528"/>
<text text-anchor="middle" x="328.4973" y="-282.4" font-family="Times,serif" font-size="14.00" fill="#00ff00">_current_PortfolioSimulation</text>
</g>
<!-- Portfolio.Singleton -->
<g id="node5" class="node">
<title>Portfolio.Singleton</title>
<polygon fill="none" stroke="#000000" points="532.2294,-93.3 532.2294,-166.9 601.8984,-166.9 601.8984,-93.3 532.2294,-93.3"/>
<text text-anchor="middle" x="567.0639" y="-150.3" font-family="Times,serif" font-size="14.00" fill="#000000">Singleton</text>
<polyline fill="none" stroke="#000000" points="532.2294,-142.1 601.8984,-142.1 "/>
<polyline fill="none" stroke="#000000" points="532.2294,-118.1 601.8984,-118.1 "/>
<text text-anchor="middle" x="567.0639" y="-101.5" font-family="Times,serif" font-size="14.00" fill="#000000"> </text>
</g>
<!-- Portfolio.Ticker -->
<g id="node6" class="node">
<title>Portfolio.Ticker</title>
<polygon fill="none" stroke="#000000" points="619.5814,-59.3 619.5814,-200.9 684.5464,-200.9 684.5464,-59.3 619.5814,-59.3"/>
<text text-anchor="middle" x="652.0639" y="-184.3" font-family="Times,serif" font-size="14.00" fill="#000000">Ticker</text>
<polyline fill="none" stroke="#000000" points="619.5814,-176.1 684.5464,-176.1 "/>
<text text-anchor="start" x="627.5814" y="-159.5" font-family="Times,serif" font-size="14.00" fill="#000000">currency</text>
<text text-anchor="start" x="627.5814" y="-142.7" font-family="Times,serif" font-size="14.00" fill="#000000">dict</text>
<text text-anchor="start" x="627.5814" y="-125.9" font-family="Times,serif" font-size="14.00" fill="#000000">sector</text>
<text text-anchor="start" x="627.5814" y="-109.1" font-family="Times,serif" font-size="14.00" fill="#000000">shares</text>
<text text-anchor="start" x="627.5814" y="-92.3" font-family="Times,serif" font-size="14.00" fill="#000000">ticker</text>
<polyline fill="none" stroke="#000000" points="619.5814,-84.1 684.5464,-84.1 "/>
<text text-anchor="middle" x="652.0639" y="-67.5" font-family="Times,serif" font-size="14.00" fill="#000000"> </text>
</g>
<!-- Portfolio.YFBridge -->
<g id="node7" class="node">
<title>Portfolio.YFBridge</title>
<polygon fill="none" stroke="#000000" points="702.9797,-93.3 702.9797,-166.9 851.1481,-166.9 851.1481,-93.3 702.9797,-93.3"/>
<text text-anchor="middle" x="777.0639" y="-150.3" font-family="Times,serif" font-size="14.00" fill="#000000">YFBridge</text>
<polyline fill="none" stroke="#000000" points="702.9797,-142.1 851.1481,-142.1 "/>
<polyline fill="none" stroke="#000000" points="702.9797,-118.1 851.1481,-118.1 "/>
<text text-anchor="start" x="710.9797" y="-101.5" font-family="Times,serif" font-size="14.00" fill="#000000">download_data(tickers)</text>
</g>
</g>
</svg>